# xmcd
#
# Track frame offsets:
#	183
#	21095
#	35443
#	49575
#	82293
#	121363
#	142943
#	219643
#
# Disc length: 3193 seconds
#
# Revision: 0
# Processed by: cddbd v1.4PL0 Copyright (c) Steve Scherf et al.
# Submitted via: MusicWizard 6.0.2
#
DISCID=6c0c7708
DTITLE=Mayall, John - The Story Of John Mayall CD 1
DYEAR=1900
DGENRE=Rhythm and Blues
TTITLE0=Room To Move
TTITLE1=Don't Waste My Time
TTITLE2=Gasoline Blues
TTITLE3=Country Road
TTITLE4=Good Times Boogie
TTITLE5=Ten Years Are Gone
TTITLE6=Dark Of The Night
TTITLE7=Moving On
EXTD=
EXTT0=
EXTT1=
EXTT2=
EXTT3=
EXTT4=
EXTT5=
EXTT6=
EXTT7=
PLAYORDER=
